<?xml version="1.0" encoding="UTF-8"?>
<svg width="700pt" height="700pt" version="1.1" viewBox="0 0 700 700" xmlns="http://www.w3.org/2000/svg" xmlns:xlink="http://www.w3.org/1999/xlink">
 <defs>
  <symbol id="g" overflow="visible">
   <path d="m28.422-1.7031c-1.4688 0.76172-3 1.3359-4.5938 1.7188-1.5859 0.38281-3.2344 0.57812-4.9531 0.57812-5.1562 0-9.2422-1.4375-12.25-4.3125-3.0117-2.875-4.5156-6.7812-4.5156-11.719s1.5039-8.8438 4.5156-11.719c3.0078-2.8828 7.0938-4.3281 12.25-4.3281 1.7188 0 3.3672 0.19531 4.9531 0.57812 1.5938 0.38672 3.125 0.96094 4.5938 1.7188v6.4062c-1.4805-1.0078-2.9375-1.75-4.375-2.2188s-2.9492-0.70312-4.5312-0.70312c-2.8438 0-5.0859 0.91406-6.7188 2.7344-1.625 1.8242-2.4375 4.3359-2.4375 7.5312 0 3.1992 0.8125 5.7109 2.4375 7.5312 1.6328 1.8242 3.875 2.7344 6.7188 2.7344 1.582 0 3.0938-0.23438 4.5312-0.70312 1.4375-0.47656 2.8945-1.2188 4.375-2.2188z"/>
  </symbol>
  <symbol id="i" overflow="visible">
   <path d="m20.797-16.875c-0.64844-0.3125-1.293-0.53516-1.9375-0.67188-0.64844-0.14453-1.293-0.21875-1.9375-0.21875-1.9062 0-3.375 0.60938-4.4062 1.8281-1.0234 1.2188-1.5312 2.9688-1.5312 5.25v10.688h-7.4219v-23.203h7.4219v3.8125c0.94531-1.5195 2.0352-2.6289 3.2656-3.3281 1.2383-0.69531 2.7227-1.0469 4.4531-1.0469 0.25 0 0.51953 0.011719 0.8125 0.03125 0.28906 0.023437 0.71094 0.070313 1.2656 0.14062z"/>
  </symbol>
  <symbol id="b" overflow="visible">
   <path d="m26.719-11.656v2.1094h-17.328c0.17578 1.7422 0.80078 3.0469 1.875 3.9219 1.082 0.86719 2.5859 1.2969 4.5156 1.2969 1.5625 0 3.1602-0.22656 4.7969-0.6875 1.6328-0.46875 3.3164-1.1719 5.0469-2.1094v5.7188c-1.75 0.65625-3.5078 1.1523-5.2656 1.4844-1.75 0.34375-3.5078 0.51562-5.2656 0.51562-4.1992 0-7.4609-1.0625-9.7812-3.1875-2.3242-2.1328-3.4844-5.1289-3.4844-8.9844 0-3.7812 1.1406-6.7539 3.4219-8.9219 2.2812-2.1758 5.4258-3.2656 9.4375-3.2656 3.6445 0 6.5625 1.1016 8.75 3.2969 2.1875 2.1992 3.2812 5.1367 3.2812 8.8125zm-7.625-2.4688c0-1.4062-0.41406-2.5391-1.2344-3.4062-0.8125-0.86328-1.8867-1.2969-3.2188-1.2969-1.4375 0-2.6055 0.40625-3.5 1.2188-0.89844 0.80469-1.4531 1.9648-1.6719 3.4844z"/>
  </symbol>
  <symbol id="f" overflow="visible">
   <path d="m13.969-10.438c-1.5547 0-2.7188 0.26562-3.5 0.79688-0.78125 0.52344-1.1719 1.293-1.1719 2.3125 0 0.9375 0.3125 1.6719 0.9375 2.2031 0.63281 0.53125 1.5078 0.79688 2.625 0.79688 1.3945 0 2.5664-0.5 3.5156-1.5 0.95703-1 1.4375-2.2539 1.4375-3.7656v-0.84375zm11.328-2.7969v13.234h-7.4844v-3.4375c-0.99219 1.4062-2.1094 2.4336-3.3594 3.0781-1.2422 0.63281-2.75 0.95312-4.5312 0.95312-2.4062 0-4.3594-0.69531-5.8594-2.0938-1.4922-1.4062-2.2344-3.2227-2.2344-5.4531 0-2.7266 0.92969-4.7266 2.7969-6 1.875-1.2695 4.8125-1.9062 8.8125-1.9062h4.375v-0.57812c0-1.1641-0.46484-2.0195-1.3906-2.5625-0.92969-0.55078-2.3711-0.82812-4.3281-0.82812-1.5859 0-3.0625 0.16406-4.4375 0.48438-1.3672 0.3125-2.6328 0.78906-3.7969 1.4219v-5.6562c1.582-0.38281 3.1758-0.67578 4.7812-0.875 1.6016-0.20703 3.2031-0.3125 4.7969-0.3125 4.1875 0 7.207 0.82812 9.0625 2.4844 1.8633 1.6484 2.7969 4.3281 2.7969 8.0469z"/>
  </symbol>
  <symbol id="a" overflow="visible">
   <path d="m11.656-29.781v6.5781h7.6562v5.3125h-7.6562v9.8281c0 1.0859 0.21094 1.8203 0.64062 2.2031 0.4375 0.375 1.2891 0.5625 2.5625 0.5625h3.7969v5.2969h-6.3594c-2.9297 0-5-0.60938-6.2188-1.8281-1.2188-1.2266-1.8281-3.3047-1.8281-6.2344v-9.8281h-3.6875v-5.3125h3.6875v-6.5781z"/>
  </symbol>
  <symbol id="e" overflow="visible">
   <path d="m19.344-19.797v-12.438h7.4531v32.234h-7.4531v-3.3594c-1.0234 1.3672-2.1484 2.3672-3.375 3-1.2305 0.63281-2.6523 0.95312-4.2656 0.95312-2.8555 0-5.2031-1.1328-7.0469-3.4062-1.8359-2.2695-2.75-5.1914-2.75-8.7656 0-3.5703 0.91406-6.4922 2.75-8.7656 1.8438-2.2812 4.1914-3.4219 7.0469-3.4219 1.6016 0 3.0195 0.32422 4.25 0.96875 1.2383 0.64844 2.3672 1.6484 3.3906 3zm-4.8906 15.016c1.5938 0 2.8047-0.57812 3.6406-1.7344 0.83203-1.1641 1.25-2.8516 1.25-5.0625 0-2.207-0.41797-3.8906-1.25-5.0469-0.83594-1.1641-2.0469-1.75-3.6406-1.75-1.5742 0-2.7773 0.58594-3.6094 1.75-0.83594 1.1562-1.25 2.8398-1.25 5.0469 0 2.2109 0.41406 3.8984 1.25 5.0625 0.83203 1.1562 2.0352 1.7344 3.6094 1.7344z"/>
  </symbol>
  <symbol id="h" overflow="visible">
   <path d="m15.906-4.7812c1.5938 0 2.8047-0.57812 3.6406-1.7344 0.83203-1.1641 1.25-2.8516 1.25-5.0625 0-2.207-0.41797-3.8906-1.25-5.0469-0.83594-1.1641-2.0469-1.75-3.6406-1.75-1.5859 0-2.8047 0.58594-3.6562 1.75-0.84375 1.168-1.2656 2.8516-1.2656 5.0469 0 2.1992 0.42188 3.8828 1.2656 5.0469 0.85156 1.168 2.0703 1.75 3.6562 1.75zm-4.9219-15.016c1.0195-1.3516 2.1484-2.3516 3.3906-3 1.2383-0.64453 2.6641-0.96875 4.2812-0.96875 2.8633 0 5.2109 1.1406 7.0469 3.4219 1.832 2.2734 2.75 5.1953 2.75 8.7656 0 3.5742-0.91797 6.4961-2.75 8.7656-1.8359 2.2734-4.1836 3.4062-7.0469 3.4062-1.6172 0-3.043-0.32031-4.2812-0.95312-1.2422-0.64453-2.3711-1.6445-3.3906-3v3.3594h-7.4219v-32.234h7.4219z"/>
  </symbol>
  <symbol id="d" overflow="visible">
   <path d="m0.51562-23.203h7.4219l6.2344 15.75 5.2969-15.75h7.4219l-9.7656 25.406c-0.98047 2.5703-2.1211 4.375-3.4219 5.4062-1.3047 1.0312-3.0273 1.5469-5.1719 1.5469h-4.2812v-4.875h2.3125c1.2578 0 2.1758-0.19922 2.75-0.59375 0.57031-0.39844 1.0156-1.1172 1.3281-2.1562l0.21875-0.64062z"/>
  </symbol>
  <symbol id="c" overflow="visible">
   <path d="m26.891-14.125v14.125h-7.4688v-10.812c0-2-0.046875-3.3789-0.14062-4.1406-0.085938-0.75781-0.23438-1.3203-0.45312-1.6875-0.29297-0.47656-0.6875-0.85156-1.1875-1.125-0.49219-0.26953-1.0547-0.40625-1.6875-0.40625-1.5547 0-2.7734 0.60156-3.6562 1.7969-0.875 1.1992-1.3125 2.8555-1.3125 4.9688v11.406h-7.4219v-23.203h7.4219v3.4062c1.1133-1.3516 2.2969-2.3516 3.5469-3 1.2578-0.64453 2.6484-0.96875 4.1719-0.96875 2.6758 0 4.707 0.82422 6.0938 2.4688 1.3945 1.6484 2.0938 4.0391 2.0938 7.1719z"/>
  </symbol>
  <symbol id="r" overflow="visible">
   <path d="m11.875-24.891v18.859h2.8594c3.25 0 5.7344-0.80469 7.4531-2.4219 1.7266-1.6133 2.5938-3.9609 2.5938-7.0469 0-3.0625-0.85938-5.3906-2.5781-6.9844-1.7109-1.6016-4.1992-2.4062-7.4688-2.4062zm-7.9844-6.0312h8.4062c4.6953 0 8.1953 0.33594 10.5 1 2.3008 0.66797 4.2695 1.8047 5.9062 3.4062 1.457 1.3984 2.5352 3.0078 3.2344 4.8281 0.70703 1.8242 1.0625 3.8867 1.0625 6.1875 0 2.3359-0.35547 4.418-1.0625 6.25-0.69922 1.8359-1.7773 3.4492-3.2344 4.8438-1.6562 1.5938-3.6484 2.7305-5.9688 3.4062-2.3125 0.66797-5.793 1-10.438 1h-8.4062z"/>
  </symbol>
  <symbol id="q" overflow="visible">
   <path d="m21.688-22.469v5.625c-1.5859-0.65625-3.1172-1.1484-4.5938-1.4844-1.4805-0.33203-2.875-0.5-4.1875-0.5-1.4062 0-2.4531 0.17969-3.1406 0.53125-0.6875 0.35547-1.0312 0.89844-1.0312 1.625 0 0.59375 0.25781 1.0547 0.78125 1.375 0.51953 0.3125 1.4453 0.54297 2.7812 0.6875l1.3125 0.1875c3.8008 0.49219 6.3516 1.2891 7.6562 2.3906 1.3125 1.1055 1.9688 2.8398 1.9688 5.2031 0 2.4688-0.91406 4.3242-2.7344 5.5625-1.8242 1.2422-4.543 1.8594-8.1562 1.8594-1.5312 0-3.1172-0.12109-4.75-0.35938-1.6367-0.23828-3.3203-0.59766-5.0469-1.0781v-5.6406c1.4766 0.71875 2.9922 1.2617 4.5469 1.625 1.5508 0.35547 3.1289 0.53125 4.7344 0.53125 1.4453 0 2.5352-0.19531 3.2656-0.59375 0.73828-0.40625 1.1094-1.0039 1.1094-1.7969 0-0.65625-0.25781-1.1445-0.76562-1.4688-0.5-0.32031-1.5078-0.57812-3.0156-0.76562l-1.2969-0.15625c-3.3047-0.41406-5.6172-1.1797-6.9375-2.2969-1.3242-1.125-1.9844-2.8281-1.9844-5.1094 0-2.457 0.83594-4.2812 2.5156-5.4688 1.6875-1.1875 4.2695-1.7812 7.75-1.7812 1.3633 0 2.7969 0.10547 4.2969 0.3125 1.5078 0.21094 3.1484 0.53906 4.9219 0.98438z"/>
  </symbol>
  <symbol id="p" overflow="visible">
   <path d="m3.5625-23.203h7.4219v23.203h-7.4219zm0-9.0312h7.4219v6.0469h-7.4219z"/>
  </symbol>
  <symbol id="o" overflow="visible">
   <path d="m19.344-3.9375c-1.0234 1.3555-2.1484 2.3516-3.375 2.9844-1.2305 0.63672-2.6523 0.95312-4.2656 0.95312-2.8359 0-5.1797-1.1133-7.0312-3.3438-1.8438-2.2266-2.7656-5.0703-2.7656-8.5312 0-3.457 0.92188-6.2969 2.7656-8.5156 1.8516-2.2188 4.1953-3.3281 7.0312-3.3281 1.6133 0 3.0352 0.32031 4.2656 0.95312 1.2266 0.63672 2.3516 1.6367 3.375 3v-3.4375h7.4531v20.859c0 3.7266-1.1797 6.5781-3.5312 8.5469-2.3555 1.9688-5.7656 2.9531-10.234 2.9531-1.4492 0-2.8516-0.10938-4.2031-0.32812-1.3555-0.21875-2.7148-0.55859-4.0781-1.0156v-5.7812c1.2891 0.75 2.5547 1.3047 3.7969 1.6719 1.25 0.36328 2.5 0.54688 3.75 0.54688 2.4375 0 4.2188-0.53125 5.3438-1.5938 1.1328-1.0625 1.7031-2.7266 1.7031-5zm-4.8906-14.438c-1.5312 0-2.7266 0.57031-3.5781 1.7031-0.85547 1.1367-1.2812 2.7344-1.2812 4.7969 0 2.1367 0.41016 3.75 1.2344 4.8438 0.83203 1.0938 2.0391 1.6406 3.625 1.6406 1.5508 0 2.7539-0.5625 3.6094-1.6875 0.85156-1.1328 1.2812-2.7344 1.2812-4.7969s-0.42969-3.6602-1.2812-4.7969c-0.85547-1.1328-2.0586-1.7031-3.6094-1.7031z"/>
  </symbol>
  <symbol id="n" overflow="visible">
   <path d="m18.828-32.234v4.875h-4.0938c-1.0547 0-1.7891 0.19531-2.2031 0.57812-0.41797 0.375-0.625 1.0312-0.625 1.9688v1.6094h6.3438v5.3125h-6.3438v17.891h-7.4062v-17.891h-3.6875v-5.3125h3.6875v-1.6094c0-2.5312 0.70312-4.3984 2.1094-5.6094 1.4062-1.207 3.5859-1.8125 6.5469-1.8125z"/>
  </symbol>
  <symbol id="m" overflow="visible">
   <path d="m26.891-14.125v14.125h-7.4688v-10.766c0-2.0312-0.046875-3.4258-0.14062-4.1875-0.085938-0.75781-0.23438-1.3203-0.45312-1.6875-0.29297-0.47656-0.6875-0.85156-1.1875-1.125-0.49219-0.26953-1.0547-0.40625-1.6875-0.40625-1.5547 0-2.7734 0.60156-3.6562 1.7969-0.875 1.1992-1.3125 2.8555-1.3125 4.9688v11.406h-7.4219v-32.234h7.4219v12.438c1.1133-1.3516 2.2969-2.3516 3.5469-3 1.2578-0.64453 2.6484-0.96875 4.1719-0.96875 2.6758 0 4.707 0.82422 6.0938 2.4688 1.3945 1.6484 2.0938 4.0391 2.0938 7.1719z"/>
  </symbol>
  <symbol id="l" overflow="visible">
   <path d="m3.8906-30.922h8.9062l11.25 21.203v-21.203h7.5625v30.922h-8.9062l-11.25-21.219v21.219h-7.5625z"/>
  </symbol>
  <symbol id="k" overflow="visible">
   <path d="m3.8906-30.922h13.234c3.9375 0 6.957 0.875 9.0625 2.625 2.1016 1.7422 3.1562 4.2266 3.1562 7.4531 0 3.25-1.0547 5.75-3.1562 7.5-2.1055 1.7422-5.125 2.6094-9.0625 2.6094h-5.25v10.734h-7.9844zm7.9844 5.7812v8.625h4.4062c1.5391 0 2.7344-0.375 3.5781-1.125s1.2656-1.8164 1.2656-3.2031c0-1.375-0.42188-2.4297-1.2656-3.1719-0.84375-0.75-2.0391-1.125-3.5781-1.125z"/>
  </symbol>
  <symbol id="j" overflow="visible">
   <path d="m3.5625-23.203h7.4219v22.781c0 3.1133-0.75 5.4883-2.25 7.125-1.4922 1.6328-3.6523 2.4531-6.4844 2.4531h-3.6562v-4.875h1.2812c1.4062 0 2.3672-0.32031 2.8906-0.95312 0.53125-0.63672 0.79688-1.8867 0.79688-3.75zm0-9.0312h7.4219v6.0469h-7.4219z"/>
  </symbol>
 </defs>
 <g>
  <path d="m324.29 440.11-70.762-8.6562c-0.42578-6.5352-3.3945-12.812-8.9922-17.055l-27.238-21.043c-1.7812-1.3594-3.3945-3.0547-4.75-4.8359l-11.453-15.527c-2.0352-2.8008-4.4961-5.2617-7.2109-7.3828l-3.1406-2.375c-6.3633-4.9219-14.34-7.7227-22.484-7.7227l-10.859-0.085938c-3.1406 0-6.2773-0.76172-9.1641-1.9531l2.375-3.0547c2.1211-2.8008 1.6133-6.7891-1.1875-8.9102l-58.715-45.309c-2.8008-2.1211-6.7891-1.6133-8.9102 1.1875s-1.6133 6.7891 1.1875 8.9102l53.625 41.406-41.832 54.219-3.9062-3.1328c-2.8008-2.1211-6.7891-1.6133-8.9102 1.1016-2.1211 2.8008-1.6133 6.7891 1.1016 8.9102l9.1641 7.043c1.1016 0.84766 2.4609 1.3594 3.9023 1.3594 0.25391 0 0.50781 0 0.76172-0.085937 1.6953-0.25391 3.2227-1.1016 4.2422-2.4609l6.4492-8.3164 2.4609 8.7383c2.1211 7.6367 6.7891 14.594 13.066 19.43l48.449 37.332c6.5352 5.0898 14.508 7.7227 22.398 7.7227 1.0195 0 2.0352 0 3.0547-0.16797l126.68-0.84766c5.2617-0.42578 10.012-2.9688 13.406-7.1289 3.3086-4.0742 4.8359-9.25 4.2422-14.508-1.1836-8.7422-8.1406-15.699-17.051-16.801zm2.8008 23.504c-1.1875 1.4414-2.8008 2.2891-4.0742 2.4609l-126.76 0.84766c-6.1094 0.50781-12.133-1.2734-16.969-5.0078l-48.449-37.332c-4.2422-3.2227-7.2109-7.6367-8.5703-12.812l-5.0078-17.902 23.078-29.867c5.2617 2.7148 11.113 4.2422 17.055 4.3281l10.859 0.085937c5.3438 0 10.52 1.8672 14.762 5.0898l3.1406 2.375c1.7812 1.3594 3.3945 2.9688 4.75 4.8359l11.453 15.527c2.0352 2.8008 4.4961 5.2617 7.2109 7.3828l27.238 21.043c4.668 3.6484 5.5156 10.352 1.9531 15.02-1.7812 2.2891-4.2422 3.7344-7.1289 4.0742-2.8867 0.33984-5.6836-0.42578-7.8906-2.1211l-26.465-20.453c-2.8008-2.1211-6.7891-1.6133-8.9102 1.1875-2.1211 2.8008-1.6133 6.7891 1.1875 8.9102l26.387 20.363c4.2422 3.3086 9.332 4.8359 14.34 4.8359 7.043 0 14-3.1406 18.582-9.0781 0.84766-1.1016 1.4414-2.207 2.0352-3.3086l71.867 8.7383c3.0547 0.33984 5.4297 2.8008 5.8555 5.8555 0.17187 1.6953-0.33984 3.4766-1.5273 4.9219z"/>
  <path d="m609.13 398.87-3.9883 3.0547-41.832-54.219 53.539-41.32c2.8008-2.1211 3.3086-6.1094 1.1875-8.9102-2.1211-2.8008-6.1094-3.3086-8.9102-1.1875l-58.629 45.223c-2.8008 2.1211-3.3086 6.1094-1.1875 8.9102l2.375 3.0547c-2.8867 1.1875-6.0234 1.9531-9.1641 1.9531l-10.859 0.085937c-8.0625 0.085937-16.035 2.8008-22.484 7.7227l-3.0547 2.375c-2.7148 2.1211-5.1758 4.582-7.2109 7.3828l-11.453 15.527c-1.3594 1.7812-2.9688 3.4805-4.75 4.8359l-27.238 21.043c-4.9219 3.8164-8.1445 9.332-8.9102 15.527-0.085938 0.50781 0 1.0195-0.085938 1.5273l-70.762 8.5703c-8.9102 1.1016-15.867 8.0625-16.969 16.969-0.59375 5.2617 0.84766 10.438 4.2422 14.508 3.3086 4.1562 8.1445 6.6172 13.914 7.1289l125.66 0.84766c1.1016 0.085937 2.207 0.16797 3.2227 0.16797 8.1445 0 16.121-2.7148 22.656-7.7227l48.449-37.332c6.3633-4.9219 10.945-11.625 13.066-19.43l2.4609-8.7383 6.4492 8.3984c1.0195 1.3594 2.5469 2.207 4.2422 2.4609 0.25391 0 0.50781 0.085938 0.84766 0.085938 1.4414 0 2.8008-0.42578 3.9023-1.3594l9.0781-6.957c2.8008-2.1211 3.3086-6.1094 1.1016-8.9102-2.1211-2.8828-6.1094-3.3945-8.9062-1.2734zm-31.312 12.898c-1.4414 5.0898-4.4141 9.5039-8.5703 12.812l-48.449 37.332c-4.8359 3.7344-10.777 5.5156-17.48 4.9219l-125.66-0.84766c-1.7812-0.16797-3.4805-1.0195-4.582-2.4609-1.1016-1.4414-1.6953-3.2227-1.4414-5.0078 0.33984-3.0547 2.8008-5.4297 5.8555-5.8555l71.867-8.7383c0.59375 1.1875 1.2734 2.2891 2.1211 3.3086 3.8164 4.9219 9.332 8.1445 15.527 8.9102 1.0195 0.16797 2.0352 0.16797 3.0547 0.16797 5.1758 0 10.098-1.6953 14.254-4.9219l26.473-20.363c2.8008-2.1211 3.3086-6.1094 1.1875-8.9102-2.1211-2.8008-6.1094-3.3086-8.9102-1.1875l-26.473 20.363c-2.2891 1.7812-5.0898 2.4609-7.8906 2.1211-2.8008-0.33984-5.3438-1.7812-7.1289-4.0742-1.7812-2.2891-2.5469-5.0898-2.1211-7.8906 0.33984-2.8008 1.7812-5.3438 4.0742-7.1289l27.238-21.043c2.7148-2.1211 5.1758-4.582 7.2109-7.3828l11.453-15.527c1.3594-1.8672 2.9688-3.4805 4.75-4.8359l3.1406-2.375c4.2422-3.2227 9.418-5.0078 14.762-5.0898l10.859-0.085937c5.9375 0 11.879-1.5273 17.055-4.3281l23.078 29.867z"/>
  <path d="m162.48 242.58c0 14.168 11.453 25.793 25.625 25.965l13.914 85.527c0.50781 3.1406 3.2227 5.3438 6.2773 5.3438 0.33984 0 0.67969 0 1.0195-0.085938 3.4805-0.59375 5.8555-3.8164 5.2617-7.2969l-13.574-83.492h31.648c3.4805 0 6.3633-2.8867 6.3633-6.3633 0-3.4805-2.8867-6.3633-6.3633-6.3633h-44.121c-7.2969 0-13.32-5.9375-13.32-13.32 0-7.3828 5.9375-13.32 13.32-13.32h323.02c7.2969 0 13.32 5.9375 13.32 13.32 0 7.3828-5.9375 13.32-13.32 13.32h-254.38c-3.4805 0-6.3633 2.8867-6.3633 6.3633 0 3.4805 2.8867 6.3633 6.3633 6.3633h241.82l-13.574 83.574c-0.59375 3.4805 1.7812 6.7031 5.2617 7.2969 0.33984 0.085938 0.67969 0.085938 1.0195 0.085938 3.0547 0 5.7695-2.207 6.2773-5.3438l13.914-85.613c14.168-0.25391 25.625-11.793 25.625-25.965 0-14.34-11.711-26.047-26.047-26.047l-322.93 0.003906c-14.34 0-26.051 11.707-26.051 26.047z"/>
  <path d="m260.57 378c-3.4805 0-6.3633 2.8867-6.3633 6.3633v13.406c0 12.559 10.266 22.824 22.824 22.824s22.824-10.266 22.824-22.824v-84.68c0-12.559-10.266-22.824-22.824-22.824s-22.824 10.266-22.824 22.824v55.832c0 3.4805 2.8867 6.3633 6.3633 6.3633 3.4805 0 6.3633-2.8867 6.3633-6.3633v-55.832c0-5.6016 4.4961-10.098 10.098-10.098s10.098 4.4961 10.098 10.098v84.68c0 5.6016-4.4961 10.098-10.098 10.098s-10.098-4.4961-10.098-10.098v-13.406c0-3.4766-2.8867-6.3633-6.3633-6.3633z"/>
  <path d="m372.82 397.77v-84.68c0-12.559-10.266-22.824-22.824-22.824s-22.824 10.266-22.824 22.824v15.781c0 3.4805 2.8867 6.3633 6.3633 6.3633 3.4805 0 6.3633-2.8867 6.3633-6.3633v-15.781c0-5.6016 4.4961-10.098 10.098-10.098s10.098 4.4961 10.098 10.098v84.68c0 5.6016-4.4961 10.098-10.098 10.098s-10.098-4.4961-10.098-10.098v-50.656c0-3.4805-2.8867-6.3633-6.3633-6.3633-3.4805 0-6.3633 2.8867-6.3633 6.3633v50.656c0 12.559 10.266 22.824 22.824 22.824s22.824-10.18 22.824-22.824z"/>
  <path d="m439.43 368.33c3.4805 0 6.3633-2.8867 6.3633-6.3633v-48.875c0-12.559-10.266-22.824-22.824-22.824s-22.824 10.266-22.824 22.824v84.68c0 12.559 10.266 22.824 22.824 22.824s22.824-10.266 22.824-22.824v-16.207c0-3.4805-2.8867-6.3633-6.3633-6.3633-3.4805 0-6.3633 2.8867-6.3633 6.3633v16.207c0 5.6016-4.4961 10.098-10.098 10.098s-10.098-4.4961-10.098-10.098v-84.68c0-5.6016 4.4961-10.098 10.098-10.098s10.098 4.4961 10.098 10.098v48.789c0 3.5625 2.8867 6.4492 6.3633 6.4492z"/>
  <path d="m150.35 177.42 38.52 25.371c1.1016 0.67969 2.2891 1.0195 3.4805 1.0195 2.0352 0 4.0742-1.0195 5.3438-2.8867 1.9531-2.9688 1.1016-6.8711-1.7812-8.8242l-38.52-25.371c-8.2305-5.4297-9.9258-14.254-8.6562-20.617 1.1875-6.2773 5.8555-13.746 15.273-15.781 16.121-3.3945 34.449-1.9531 52.777 3.4805 2.0352 9.7578-1.6953 19.855-9.7578 25.965-2.8008 2.1211-3.3086 6.1094-1.1875 8.9102 1.2734 1.6133 3.1406 2.5469 5.0898 2.5469 1.3594 0 2.7148-0.42578 3.8164-1.2734 10.012-7.6367 15.527-19.344 15.359-31.48 5.3438 2.207 10.605 4.668 15.867 7.5508 8.1445 11.453 5.7695 27.32-5.4297 35.805-2.8008 2.1211-3.3086 6.1094-1.1875 8.9102 1.2734 1.6133 3.1406 2.5469 5.0898 2.5469 1.3594 0 2.7148-0.42578 3.8164-1.2734 11.113-8.4844 16.289-21.805 15.02-34.789 2.8008 2.1211 6.7891 1.4414 8.9102-1.3594 2.1211-2.8008 1.4414-6.7891-1.3594-8.9102l-1.6953-1.2734c-1.8672-1.3594-3.7344-2.8008-5.6836-4.0742-32.668-21.551-70.848-30.461-102.07-23.844-13.066 2.8008-22.656 12.641-25.199 25.793-2.5469 13.496 2.8828 26.395 14.168 33.859z"/>
  <path d="m411.18 150.86c-11.453 6.1953-18.668 18.156-18.668 31.141v15.441c0 3.4805 2.8867 6.3633 6.3633 6.3633 3.4805 0 6.3633-2.8867 6.3633-6.3633v-15.441c0-8.3164 4.582-16.035 11.965-19.938 11.453-6.1953 18.668-18.156 18.668-31.141v-6.1953h30.801v6.1094c0 13.066 7.1289 25.031 18.668 31.141 7.3828 3.9883 11.965 11.625 11.965 19.938v15.441c0 3.4805 2.8867 6.3633 6.3633 6.3633 3.4805 0 6.3633-2.8867 6.3633-6.3633v-15.441c0-13.066-7.1289-25.031-18.668-31.141-7.3828-3.9883-11.965-11.625-11.965-19.938v-6.3633c7.043-1.0195 12.559-7.043 12.559-14.34v-15.273c0-8.0625-6.5352-14.594-14.594-14.594h-52.184c-8.0625 0-14.594 6.5352-14.594 14.594v15.273c0 7.2969 5.5156 13.406 12.559 14.34v6.3633c-0.085937 8.4023-4.668 16.035-11.965 20.023zm12.047-56c0-1.0195 0.84766-1.8672 1.8672-1.8672h52.184c1.0195 0 1.8672 0.84766 1.8672 1.8672v15.273c0 1.0195-0.84766 1.8672-1.8672 1.8672h-52.012c-1.0195 0-1.8672-0.84766-1.8672-1.8672v-15.273z"/>
  <path d="m285.43 203.8h0.42578c3.4805-0.25391 6.1953-3.3086 5.9375-6.7891-1.6953-24.859 6.957-45.48 20.195-47.938 7.6367-1.4414 14.508 3.2227 18.922 7.3828 5.8555 5.4297 13.238 8.2305 20.703 8.3164 0.16797 0 0.33984 0.085937 0.59375 0.085937 0.16797 0 0.33984-0.085937 0.59375-0.085937 7.4648-0.16797 14.848-2.8867 20.703-8.3164 5.3438-5.0078 11.113-7.7227 16.547-7.4648 3.5625 0.16797 6.4492-2.6289 6.5352-6.1953 0.085937-3.5625-2.6289-6.4492-6.1953-6.5352-8.9922-0.33984-17.816 3.4805-25.711 10.859-1.8672 1.7812-4.0742 3.0547-6.2773 3.9023-0.59375-15.441-9.8438-29.441-23.926-35.891-3.2227-1.4414-6.957-0.085938-8.3984 3.1406-1.4414 3.2227-0.085937 6.957 3.1406 8.4844 9.5859 4.4141 15.867 13.832 16.547 24.266-2.207-0.84766-4.2422-2.1211-6.0234-3.8164-9.332-8.7383-20.023-12.473-30.035-10.605-20.195 3.8164-32.75 29.02-30.547 61.344 0.16016 3.3125 2.9609 5.8555 6.2695 5.8555z"/>
  <use x="70" y="687.273438" xlink:href="#g"/>
  <use x="101.132813" y="687.273438" xlink:href="#i"/>
  <use x="122.058594" y="687.273438" xlink:href="#b"/>
  <use x="150.828125" y="687.273438" xlink:href="#f"/>
  <use x="179.457031" y="687.273438" xlink:href="#a"/>
  <use x="199.738281" y="687.273438" xlink:href="#b"/>
  <use x="228.511719" y="687.273438" xlink:href="#e"/>
  <use x="273.648438" y="687.273438" xlink:href="#h"/>
  <use x="304.015625" y="687.273438" xlink:href="#d"/>
  <use x="346.441406" y="687.273438" xlink:href="#g"/>
  <use x="377.574219" y="687.273438" xlink:href="#f"/>
  <use x="406.203125" y="687.273438" xlink:href="#c"/>
  <use x="436.40625" y="687.273438" xlink:href="#e"/>
  <use x="466.773438" y="687.273438" xlink:href="#d"/>
  <use x="509.199219" y="687.273438" xlink:href="#r"/>
  <use x="544.414062" y="687.273438" xlink:href="#b"/>
  <use x="573.1875" y="687.273438" xlink:href="#q"/>
  <use x="598.4375" y="687.273438" xlink:href="#p"/>
  <use x="612.980469" y="687.273438" xlink:href="#o"/>
  <use x="643.347656" y="687.273438" xlink:href="#c"/>
  <use x="70" y="729.695312" xlink:href="#n"/>
  <use x="197.5" y="729.695312" xlink:href="#a"/>
  <use x="217.78125" y="729.695312" xlink:href="#m"/>
  <use x="291.527344" y="729.695312" xlink:href="#l"/>
  <use x="431.351563" y="729.695312" xlink:href="#k"/>
  <use x="512.511719" y="729.695312" xlink:href="#j"/>
  <use x="580.976562" y="729.695312" xlink:href="#a"/>
 </g>
</svg>
