<?xml version="1.0" encoding="UTF-8"?>
<svg width="700pt" height="700pt" version="1.1" viewBox="0 0 700 700" xmlns="http://www.w3.org/2000/svg" xmlns:xlink="http://www.w3.org/1999/xlink">
 <defs>
  <symbol id="g" overflow="visible">
   <path d="m28.422-1.7031c-1.4688 0.76172-3 1.3359-4.5938 1.7188-1.5859 0.38281-3.2344 0.57812-4.9531 0.57812-5.1562 0-9.2422-1.4375-12.25-4.3125-3.0117-2.875-4.5156-6.7812-4.5156-11.719s1.5039-8.8438 4.5156-11.719c3.0078-2.8828 7.0938-4.3281 12.25-4.3281 1.7188 0 3.3672 0.19531 4.9531 0.57812 1.5938 0.38672 3.125 0.96094 4.5938 1.7188v6.4062c-1.4805-1.0078-2.9375-1.75-4.375-2.2188s-2.9492-0.70312-4.5312-0.70312c-2.8438 0-5.0859 0.91406-6.7188 2.7344-1.625 1.8242-2.4375 4.3359-2.4375 7.5312 0 3.1992 0.8125 5.7109 2.4375 7.5312 1.6328 1.8242 3.875 2.7344 6.7188 2.7344 1.582 0 3.0938-0.23438 4.5312-0.70312 1.4375-0.47656 2.8945-1.2188 4.375-2.2188z"/>
  </symbol>
  <symbol id="i" overflow="visible">
   <path d="m20.797-16.875c-0.64844-0.3125-1.293-0.53516-1.9375-0.67188-0.64844-0.14453-1.293-0.21875-1.9375-0.21875-1.9062 0-3.375 0.60938-4.4062 1.8281-1.0234 1.2188-1.5312 2.9688-1.5312 5.25v10.688h-7.4219v-23.203h7.4219v3.8125c0.94531-1.5195 2.0352-2.6289 3.2656-3.3281 1.2383-0.69531 2.7227-1.0469 4.4531-1.0469 0.25 0 0.51953 0.011719 0.8125 0.03125 0.28906 0.023437 0.71094 0.070313 1.2656 0.14062z"/>
  </symbol>
  <symbol id="b" overflow="visible">
   <path d="m26.719-11.656v2.1094h-17.328c0.17578 1.7422 0.80078 3.0469 1.875 3.9219 1.082 0.86719 2.5859 1.2969 4.5156 1.2969 1.5625 0 3.1602-0.22656 4.7969-0.6875 1.6328-0.46875 3.3164-1.1719 5.0469-2.1094v5.7188c-1.75 0.65625-3.5078 1.1523-5.2656 1.4844-1.75 0.34375-3.5078 0.51562-5.2656 0.51562-4.1992 0-7.4609-1.0625-9.7812-3.1875-2.3242-2.1328-3.4844-5.1289-3.4844-8.9844 0-3.7812 1.1406-6.7539 3.4219-8.9219 2.2812-2.1758 5.4258-3.2656 9.4375-3.2656 3.6445 0 6.5625 1.1016 8.75 3.2969 2.1875 2.1992 3.2812 5.1367 3.2812 8.8125zm-7.625-2.4688c0-1.4062-0.41406-2.5391-1.2344-3.4062-0.8125-0.86328-1.8867-1.2969-3.2188-1.2969-1.4375 0-2.6055 0.40625-3.5 1.2188-0.89844 0.80469-1.4531 1.9648-1.6719 3.4844z"/>
  </symbol>
  <symbol id="f" overflow="visible">
   <path d="m13.969-10.438c-1.5547 0-2.7188 0.26562-3.5 0.79688-0.78125 0.52344-1.1719 1.293-1.1719 2.3125 0 0.9375 0.3125 1.6719 0.9375 2.2031 0.63281 0.53125 1.5078 0.79688 2.625 0.79688 1.3945 0 2.5664-0.5 3.5156-1.5 0.95703-1 1.4375-2.2539 1.4375-3.7656v-0.84375zm11.328-2.7969v13.234h-7.4844v-3.4375c-0.99219 1.4062-2.1094 2.4336-3.3594 3.0781-1.2422 0.63281-2.75 0.95312-4.5312 0.95312-2.4062 0-4.3594-0.69531-5.8594-2.0938-1.4922-1.4062-2.2344-3.2227-2.2344-5.4531 0-2.7266 0.92969-4.7266 2.7969-6 1.875-1.2695 4.8125-1.9062 8.8125-1.9062h4.375v-0.57812c0-1.1641-0.46484-2.0195-1.3906-2.5625-0.92969-0.55078-2.3711-0.82812-4.3281-0.82812-1.5859 0-3.0625 0.16406-4.4375 0.48438-1.3672 0.3125-2.6328 0.78906-3.7969 1.4219v-5.6562c1.582-0.38281 3.1758-0.67578 4.7812-0.875 1.6016-0.20703 3.2031-0.3125 4.7969-0.3125 4.1875 0 7.207 0.82812 9.0625 2.4844 1.8633 1.6484 2.7969 4.3281 2.7969 8.0469z"/>
  </symbol>
  <symbol id="a" overflow="visible">
   <path d="m11.656-29.781v6.5781h7.6562v5.3125h-7.6562v9.8281c0 1.0859 0.21094 1.8203 0.64062 2.2031 0.4375 0.375 1.2891 0.5625 2.5625 0.5625h3.7969v5.2969h-6.3594c-2.9297 0-5-0.60938-6.2188-1.8281-1.2188-1.2266-1.8281-3.3047-1.8281-6.2344v-9.8281h-3.6875v-5.3125h3.6875v-6.5781z"/>
  </symbol>
  <symbol id="e" overflow="visible">
   <path d="m19.344-19.797v-12.438h7.4531v32.234h-7.4531v-3.3594c-1.0234 1.3672-2.1484 2.3672-3.375 3-1.2305 0.63281-2.6523 0.95312-4.2656 0.95312-2.8555 0-5.2031-1.1328-7.0469-3.4062-1.8359-2.2695-2.75-5.1914-2.75-8.7656 0-3.5703 0.91406-6.4922 2.75-8.7656 1.8438-2.2812 4.1914-3.4219 7.0469-3.4219 1.6016 0 3.0195 0.32422 4.25 0.96875 1.2383 0.64844 2.3672 1.6484 3.3906 3zm-4.8906 15.016c1.5938 0 2.8047-0.57812 3.6406-1.7344 0.83203-1.1641 1.25-2.8516 1.25-5.0625 0-2.207-0.41797-3.8906-1.25-5.0469-0.83594-1.1641-2.0469-1.75-3.6406-1.75-1.5742 0-2.7773 0.58594-3.6094 1.75-0.83594 1.1562-1.25 2.8398-1.25 5.0469 0 2.2109 0.41406 3.8984 1.25 5.0625 0.83203 1.1562 2.0352 1.7344 3.6094 1.7344z"/>
  </symbol>
  <symbol id="h" overflow="visible">
   <path d="m15.906-4.7812c1.5938 0 2.8047-0.57812 3.6406-1.7344 0.83203-1.1641 1.25-2.8516 1.25-5.0625 0-2.207-0.41797-3.8906-1.25-5.0469-0.83594-1.1641-2.0469-1.75-3.6406-1.75-1.5859 0-2.8047 0.58594-3.6562 1.75-0.84375 1.168-1.2656 2.8516-1.2656 5.0469 0 2.1992 0.42188 3.8828 1.2656 5.0469 0.85156 1.168 2.0703 1.75 3.6562 1.75zm-4.9219-15.016c1.0195-1.3516 2.1484-2.3516 3.3906-3 1.2383-0.64453 2.6641-0.96875 4.2812-0.96875 2.8633 0 5.2109 1.1406 7.0469 3.4219 1.832 2.2734 2.75 5.1953 2.75 8.7656 0 3.5742-0.91797 6.4961-2.75 8.7656-1.8359 2.2734-4.1836 3.4062-7.0469 3.4062-1.6172 0-3.043-0.32031-4.2812-0.95312-1.2422-0.64453-2.3711-1.6445-3.3906-3v3.3594h-7.4219v-32.234h7.4219z"/>
  </symbol>
  <symbol id="d" overflow="visible">
   <path d="m0.51562-23.203h7.4219l6.2344 15.75 5.2969-15.75h7.4219l-9.7656 25.406c-0.98047 2.5703-2.1211 4.375-3.4219 5.4062-1.3047 1.0312-3.0273 1.5469-5.1719 1.5469h-4.2812v-4.875h2.3125c1.2578 0 2.1758-0.19922 2.75-0.59375 0.57031-0.39844 1.0156-1.1172 1.3281-2.1562l0.21875-0.64062z"/>
  </symbol>
  <symbol id="c" overflow="visible">
   <path d="m26.891-14.125v14.125h-7.4688v-10.812c0-2-0.046875-3.3789-0.14062-4.1406-0.085938-0.75781-0.23438-1.3203-0.45312-1.6875-0.29297-0.47656-0.6875-0.85156-1.1875-1.125-0.49219-0.26953-1.0547-0.40625-1.6875-0.40625-1.5547 0-2.7734 0.60156-3.6562 1.7969-0.875 1.1992-1.3125 2.8555-1.3125 4.9688v11.406h-7.4219v-23.203h7.4219v3.4062c1.1133-1.3516 2.2969-2.3516 3.5469-3 1.2578-0.64453 2.6484-0.96875 4.1719-0.96875 2.6758 0 4.707 0.82422 6.0938 2.4688 1.3945 1.6484 2.0938 4.0391 2.0938 7.1719z"/>
  </symbol>
  <symbol id="r" overflow="visible">
   <path d="m11.875-24.891v18.859h2.8594c3.25 0 5.7344-0.80469 7.4531-2.4219 1.7266-1.6133 2.5938-3.9609 2.5938-7.0469 0-3.0625-0.85938-5.3906-2.5781-6.9844-1.7109-1.6016-4.1992-2.4062-7.4688-2.4062zm-7.9844-6.0312h8.4062c4.6953 0 8.1953 0.33594 10.5 1 2.3008 0.66797 4.2695 1.8047 5.9062 3.4062 1.457 1.3984 2.5352 3.0078 3.2344 4.8281 0.70703 1.8242 1.0625 3.8867 1.0625 6.1875 0 2.3359-0.35547 4.418-1.0625 6.25-0.69922 1.8359-1.7773 3.4492-3.2344 4.8438-1.6562 1.5938-3.6484 2.7305-5.9688 3.4062-2.3125 0.66797-5.793 1-10.438 1h-8.4062z"/>
  </symbol>
  <symbol id="q" overflow="visible">
   <path d="m21.688-22.469v5.625c-1.5859-0.65625-3.1172-1.1484-4.5938-1.4844-1.4805-0.33203-2.875-0.5-4.1875-0.5-1.4062 0-2.4531 0.17969-3.1406 0.53125-0.6875 0.35547-1.0312 0.89844-1.0312 1.625 0 0.59375 0.25781 1.0547 0.78125 1.375 0.51953 0.3125 1.4453 0.54297 2.7812 0.6875l1.3125 0.1875c3.8008 0.49219 6.3516 1.2891 7.6562 2.3906 1.3125 1.1055 1.9688 2.8398 1.9688 5.2031 0 2.4688-0.91406 4.3242-2.7344 5.5625-1.8242 1.2422-4.543 1.8594-8.1562 1.8594-1.5312 0-3.1172-0.12109-4.75-0.35938-1.6367-0.23828-3.3203-0.59766-5.0469-1.0781v-5.6406c1.4766 0.71875 2.9922 1.2617 4.5469 1.625 1.5508 0.35547 3.1289 0.53125 4.7344 0.53125 1.4453 0 2.5352-0.19531 3.2656-0.59375 0.73828-0.40625 1.1094-1.0039 1.1094-1.7969 0-0.65625-0.25781-1.1445-0.76562-1.4688-0.5-0.32031-1.5078-0.57812-3.0156-0.76562l-1.2969-0.15625c-3.3047-0.41406-5.6172-1.1797-6.9375-2.2969-1.3242-1.125-1.9844-2.8281-1.9844-5.1094 0-2.457 0.83594-4.2812 2.5156-5.4688 1.6875-1.1875 4.2695-1.7812 7.75-1.7812 1.3633 0 2.7969 0.10547 4.2969 0.3125 1.5078 0.21094 3.1484 0.53906 4.9219 0.98438z"/>
  </symbol>
  <symbol id="p" overflow="visible">
   <path d="m3.5625-23.203h7.4219v23.203h-7.4219zm0-9.0312h7.4219v6.0469h-7.4219z"/>
  </symbol>
  <symbol id="o" overflow="visible">
   <path d="m19.344-3.9375c-1.0234 1.3555-2.1484 2.3516-3.375 2.9844-1.2305 0.63672-2.6523 0.95312-4.2656 0.95312-2.8359 0-5.1797-1.1133-7.0312-3.3438-1.8438-2.2266-2.7656-5.0703-2.7656-8.5312 0-3.457 0.92188-6.2969 2.7656-8.5156 1.8516-2.2188 4.1953-3.3281 7.0312-3.3281 1.6133 0 3.0352 0.32031 4.2656 0.95312 1.2266 0.63672 2.3516 1.6367 3.375 3v-3.4375h7.4531v20.859c0 3.7266-1.1797 6.5781-3.5312 8.5469-2.3555 1.9688-5.7656 2.9531-10.234 2.9531-1.4492 0-2.8516-0.10938-4.2031-0.32812-1.3555-0.21875-2.7148-0.55859-4.0781-1.0156v-5.7812c1.2891 0.75 2.5547 1.3047 3.7969 1.6719 1.25 0.36328 2.5 0.54688 3.75 0.54688 2.4375 0 4.2188-0.53125 5.3438-1.5938 1.1328-1.0625 1.7031-2.7266 1.7031-5zm-4.8906-14.438c-1.5312 0-2.7266 0.57031-3.5781 1.7031-0.85547 1.1367-1.2812 2.7344-1.2812 4.7969 0 2.1367 0.41016 3.75 1.2344 4.8438 0.83203 1.0938 2.0391 1.6406 3.625 1.6406 1.5508 0 2.7539-0.5625 3.6094-1.6875 0.85156-1.1328 1.2812-2.7344 1.2812-4.7969s-0.42969-3.6602-1.2812-4.7969c-0.85547-1.1328-2.0586-1.7031-3.6094-1.7031z"/>
  </symbol>
  <symbol id="n" overflow="visible">
   <path d="m18.828-32.234v4.875h-4.0938c-1.0547 0-1.7891 0.19531-2.2031 0.57812-0.41797 0.375-0.625 1.0312-0.625 1.9688v1.6094h6.3438v5.3125h-6.3438v17.891h-7.4062v-17.891h-3.6875v-5.3125h3.6875v-1.6094c0-2.5312 0.70312-4.3984 2.1094-5.6094 1.4062-1.207 3.5859-1.8125 6.5469-1.8125z"/>
  </symbol>
  <symbol id="m" overflow="visible">
   <path d="m26.891-14.125v14.125h-7.4688v-10.766c0-2.0312-0.046875-3.4258-0.14062-4.1875-0.085938-0.75781-0.23438-1.3203-0.45312-1.6875-0.29297-0.47656-0.6875-0.85156-1.1875-1.125-0.49219-0.26953-1.0547-0.40625-1.6875-0.40625-1.5547 0-2.7734 0.60156-3.6562 1.7969-0.875 1.1992-1.3125 2.8555-1.3125 4.9688v11.406h-7.4219v-32.234h7.4219v12.438c1.1133-1.3516 2.2969-2.3516 3.5469-3 1.2578-0.64453 2.6484-0.96875 4.1719-0.96875 2.6758 0 4.707 0.82422 6.0938 2.4688 1.3945 1.6484 2.0938 4.0391 2.0938 7.1719z"/>
  </symbol>
  <symbol id="l" overflow="visible">
   <path d="m3.8906-30.922h8.9062l11.25 21.203v-21.203h7.5625v30.922h-8.9062l-11.25-21.219v21.219h-7.5625z"/>
  </symbol>
  <symbol id="k" overflow="visible">
   <path d="m3.8906-30.922h13.234c3.9375 0 6.957 0.875 9.0625 2.625 2.1016 1.7422 3.1562 4.2266 3.1562 7.4531 0 3.25-1.0547 5.75-3.1562 7.5-2.1055 1.7422-5.125 2.6094-9.0625 2.6094h-5.25v10.734h-7.9844zm7.9844 5.7812v8.625h4.4062c1.5391 0 2.7344-0.375 3.5781-1.125s1.2656-1.8164 1.2656-3.2031c0-1.375-0.42188-2.4297-1.2656-3.1719-0.84375-0.75-2.0391-1.125-3.5781-1.125z"/>
  </symbol>
  <symbol id="j" overflow="visible">
   <path d="m3.5625-23.203h7.4219v22.781c0 3.1133-0.75 5.4883-2.25 7.125-1.4922 1.6328-3.6523 2.4531-6.4844 2.4531h-3.6562v-4.875h1.2812c1.4062 0 2.3672-0.32031 2.8906-0.95312 0.53125-0.63672 0.79688-1.8867 0.79688-3.75zm0-9.0312h7.4219v6.0469h-7.4219z"/>
  </symbol>
 </defs>
 <g>
  <path d="m377.41 121.93c-7.9766 9.8438-6.957 24.438 2.4609 33.855l1.5273 1.5273c9.332 9.332 16.887 20.789 23.25 35.043 6.1953 13.66 15.781 25.711 20.871 31.648 8.3984 9.6719 14.168 19.938 17.309 30.375 0.59375 2.0352 1.1016 3.9883 1.5273 5.9375h-3.0547c-3.4805 0-6.3633 2.8867-6.3633 6.3633v44.629c0 3.4805 2.8867 6.3633 6.3633 6.3633 3.4805 0 6.3633-2.8867 6.3633-6.3633v-38.266h116.25v61.344c0 3.4805 2.8867 6.3633 6.3633 6.3633 3.4805 0 6.3633-2.8867 6.3633-6.3633v-67.711c0-3.4805-2.8867-6.3633-6.3633-6.3633h-5.8555c0.085938-8.2305 1.3594-16.289 3.9023-23.926l9.7578-29.441c3.0547-9.332 4.582-18.922 4.582-28.426v-107.67c0-6.5352-2.7148-12.898-7.2109-17.309-4.582-4.668-10.945-7.3828-17.48-7.3828-4.3281 0-8.3984 1.1875-11.965 3.1406v-0.33984c0-13.574-11.113-24.691-24.691-24.691-4.8359 0-9.332 1.4414-13.152 3.9023-3.1406-10.098-12.387-17.48-23.504-17.48-11.113 0-20.363 7.3828-23.504 17.48-3.9023-2.4609-8.4844-3.8164-13.152-3.8164-13.66 0-24.691 11.113-24.691 24.691v80.012l-9.418-8.9102c-4.9219-4.9219-11.711-7.5508-18.75-7.2109-6.7852 0.25391-13.32 3.5625-17.73 8.9922zm27.746 7.2148 20.277 19.176c1.8672 1.7812 4.582 2.207 6.8711 1.1875 2.375-1.0195 3.8164-3.3086 3.8164-5.8555l0.003906-94.691c0-6.6172 5.3438-11.965 11.965-11.965 4.0742 0 6.8711 1.9531 8.3984 3.3945 2.207 2.2891 3.4805 5.2617 3.4805 8.3984v16.035c0 3.4805 2.8867 6.3633 6.3633 6.3633 0.84766 0 1.6953-0.16797 2.4609-0.50781 2.2891-0.93359 3.9023-3.2227 3.9023-5.8555v-15.863-0.25391-13.406c0-6.6172 5.3438-11.965 11.965-11.965 6.6172 0 11.965 5.3438 11.965 11.965v29.527c0 3.4805 2.8867 6.3633 6.3633 6.3633 3.4805 0 6.3633-2.8867 6.3633-6.3633l-0.003906-15.867c0-6.6172 5.3438-11.965 11.965-11.965 6.6172 0 11.965 5.3438 11.965 11.965v15.867 0.085937 5.9375c0 3.4805 2.8867 6.3633 6.3633 6.3633 3.4805 0 6.3633-2.8867 6.3633-6.3633 0-6.6172 5.3438-11.965 11.965-11.965 3.1406 0 6.1094 1.2734 8.4844 3.6484 2.2891 2.207 3.4805 5.1758 3.4805 8.3164v107.59c0 8.2305-1.3594 16.461-3.9883 24.438l-9.7578 29.441c-2.9688 8.9102-4.582 18.328-4.582 28l-94.098 0.003906c-0.67969-3.1406-1.4414-6.2773-2.4609-9.5859-3.6484-12.219-10.352-24.012-19.855-35.043-4.668-5.4297-13.406-16.289-18.922-28.508-6.957-15.695-15.441-28.426-25.879-38.859l-1.5273-1.5273c-4.75-4.75-5.4297-12.133-1.6133-16.801 2.207-2.7148 5.2617-4.2422 8.7383-4.4141 3.4805-0.085937 6.6211 1.1016 9.168 3.5625z"/>
  <path d="m322.59 438.07c8.0625-9.8438 6.957-24.438-2.4609-33.855l-1.5273-1.5273c-9.332-9.332-16.887-20.703-23.25-35.043-6.1953-13.66-15.781-25.711-20.871-31.648-8.3984-9.6719-14.168-19.938-17.309-30.375-0.59375-2.0352-1.1016-3.9883-1.5273-5.9375h3.0547c3.4805 0 6.3633-2.8867 6.3633-6.3633v-44.629c0-3.4805-2.8867-6.3633-6.3633-6.3633-3.4805 0-6.3633 2.8867-6.3633 6.3633v38.266h-4.4141l-106.06-0.003907h-5.8555v-61.344c0-3.4805-2.8867-6.3633-6.3633-6.3633-3.4805 0-6.3633 2.8867-6.3633 6.3633v67.711c0 3.4805 2.8867 6.3633 6.3633 6.3633h5.8555c-0.085937 8.3164-1.3594 16.289-3.9023 23.926l-9.8438 29.441c-3.0547 9.332-4.582 18.922-4.582 28.426v107.59c0 6.5352 2.7148 12.898 7.2109 17.309 4.582 4.668 10.945 7.3828 17.48 7.3828 4.3281 0 8.3984-1.1875 11.965-3.1406v0.42578c0 13.574 11.113 24.691 24.691 24.691 4.8359 0 9.332-1.4414 13.152-3.9023 3.1406 10.098 12.387 17.48 23.504 17.48 11.113 0 20.363-7.3828 23.504-17.48 3.9023 2.4609 8.4844 3.8164 13.152 3.8164 13.574 0 24.691-11.113 24.691-24.691l-0.007813-79.926 9.418 8.9102c4.9219 4.9219 11.793 7.5508 18.75 7.2109 6.9609-0.33984 13.496-3.6484 17.906-9.0781zm-27.746-7.2148-20.277-19.176c-1.8672-1.7812-4.582-2.207-6.8711-1.1875-2.375 1.0195-3.8164 3.3086-3.8164 5.8555v94.777c0 6.6172-5.3438 11.965-11.965 11.965-4.0742 0-6.8711-1.9531-8.3984-3.3945-2.207-2.2891-3.4805-5.2617-3.4805-8.3984v-16.035c0-3.4805-2.8867-6.3633-6.3633-6.3633-0.84766 0-1.6953 0.16797-2.4609 0.50781-2.2891 0.93359-3.9023 3.2227-3.9023 5.8555v15.867 0.25391 13.406c0 6.6172-5.3438 11.965-11.965 11.965-6.6172 0-11.965-5.3438-11.965-11.965v-29.527c0-3.4805-2.8867-6.3633-6.3633-6.3633-3.4805 0-6.3633 2.8867-6.3633 6.3633v15.867c0 6.6172-5.3438 11.965-11.965 11.965-6.6172 0-11.965-5.3438-11.965-11.965v-15.867-0.085937-6.0234c0-3.4805-2.8867-6.3633-6.3633-6.3633-3.4805 0-6.3633 2.8867-6.3633 6.3633 0 6.6172-5.3438 11.965-11.965 11.965-3.1406 0-6.1094-1.2734-8.4844-3.6484-2.207-2.207-3.4805-5.1758-3.4805-8.3164l0.003907-107.59c0-8.2305 1.3594-16.461 3.9883-24.438l9.7578-29.359c2.9688-8.9102 4.582-18.328 4.582-28h94.266c0.67969 3.1406 1.4414 6.2773 2.4609 9.5859 3.6484 12.219 10.266 24.012 19.855 35.043 4.668 5.4297 13.406 16.289 18.922 28.508 6.957 15.695 15.441 28.426 25.879 38.777l1.5273 1.5273c4.75 4.75 5.4297 12.133 1.6133 16.801-2.207 2.6289-5.2617 4.2422-8.6562 4.4141-3.5664 0.25781-6.875-1.1016-9.4219-3.5625z"/>
  <path d="m198.97 206.52-8.9102 9.418c-4.9219 4.9219-7.5508 11.711-7.2109 18.75 0.33984 6.957 3.6484 13.492 9.0781 17.902 4.4141 3.5625 9.8438 5.3438 15.188 5.3438 6.7031 0 13.406-2.6289 18.582-7.8906l1.6133-1.6133c9.25-9.332 20.703-16.887 35.043-23.25 13.66-6.1953 25.711-15.695 31.648-20.871 9.6719-8.3984 19.938-14.168 30.375-17.309 2.0352-0.59375 3.9883-1.1016 6.0234-1.5273v3.0547c0 3.4805 2.8867 6.3633 6.3633 6.3633h44.629c3.4805 0 6.3633-2.8867 6.3633-6.3633 0-3.4805-2.8867-6.3633-6.3633-6.3633h-38.266v-4.4141l0.003906-105.88v-5.8555h61.344c3.4805 0 6.3633-2.8867 6.3633-6.3633 0-3.4805-2.8867-6.3633-6.3633-6.3633h-67.711c-3.4805 0-6.3633 2.8867-6.3633 6.3633v5.8555c-8.2305-0.085937-16.289-1.3594-23.926-3.9023l-29.527-9.8438c-9.332-3.0547-18.836-4.582-28.426-4.582h-107.67c-6.5352 0-12.898 2.7148-17.395 7.2109-4.582 4.582-7.2969 10.945-7.2969 17.48 0 4.3281 1.1875 8.3984 3.1406 11.965h-0.33984c-13.574 0-24.691 11.113-24.691 24.691 0 4.8359 1.4414 9.332 3.9023 13.152-10.098 3.0547-17.562 12.387-17.562 23.504 0 11.113 7.3828 20.363 17.48 23.504-2.4609 3.9023-3.8164 8.4844-3.8164 13.152 0 13.574 11.113 24.691 24.691 24.691zm-91.977-24.688c0-4.0742 1.9531-6.8711 3.3945-8.3984 2.2891-2.2891 5.2617-3.4805 8.3984-3.4805h15.953c3.4805 0 6.3633-2.8867 6.3633-6.3633 0-1.7812-0.67969-3.3086-1.8672-4.4961s-2.7148-1.8672-4.4961-1.8672l-15.781-0.003906h-0.16797-13.492c-6.6172 0-11.965-5.3438-11.965-11.965 0-6.6172 5.3438-11.965 11.965-11.965h29.527c3.4805 0 6.3633-2.8867 6.3633-6.3633 0-3.4766-2.8828-6.4453-6.3633-6.4453h-15.867c-6.6172 0-11.965-5.3438-11.965-11.965 0-6.6172 5.3438-11.965 11.965-11.965h15.867 0.085937 5.9375c3.4805 0 6.3633-2.8867 6.3633-6.3633 0-3.4766-2.7969-6.3594-6.3633-6.3594-6.6172 0-11.965-5.3438-11.965-11.965 0-3.2227 1.2734-6.1094 3.6484-8.4844 2.207-2.2891 5.1758-3.4805 8.3164-3.4805h107.59c8.2305 0 16.461 1.3594 24.438 3.9883l29.441 9.7578c8.9102 2.9688 18.328 4.582 28 4.582v94.266c-3.1406 0.67969-6.2773 1.4414-9.5859 2.4609-12.219 3.6484-24.012 10.266-35.043 19.855-5.4297 4.668-16.289 13.406-28.508 18.922-15.695 7.043-28.426 15.441-38.777 25.879l-1.6133 1.6133c-4.75 4.75-12.133 5.4297-16.801 1.6133-2.7148-2.207-4.2422-5.2617-4.4141-8.6562-0.16797-3.3945 1.1016-6.7031 3.6484-9.25l19.176-20.277c1.7812-1.8672 2.207-4.582 1.1875-6.8711-1.0195-2.2891-3.3086-3.8164-5.8555-3.8164l-94.77-0.003906c-6.6172-0.17188-11.965-5.5156-11.965-12.133z"/>
  <path d="m619.39 414.82c0-11.113-7.3828-20.363-17.48-23.504 2.4609-3.9023 3.8164-8.4844 3.8164-13.152 0-13.574-11.113-24.691-24.691-24.691l-80.008 0.003907 8.9102-9.418c4.9219-4.9219 7.5508-11.711 7.2109-18.75-0.33984-6.957-3.6484-13.492-9.0781-17.902-9.8438-7.9766-24.438-6.957-33.855 2.4609l-1.6133 1.6133c-9.332 9.332-20.789 16.887-35.043 23.25-13.746 6.1953-25.711 15.781-31.648 20.871-9.6719 8.3984-19.938 14.168-30.375 17.309-2.0352 0.59375-3.9883 1.1016-6.0234 1.5273v-3.0547c0-3.4805-2.8867-6.3633-6.3633-6.3633h-44.629c-3.4805 0-6.3633 2.8867-6.3633 6.3633 0 3.4805 2.8867 6.3633 6.3633 6.3633h38.266v116.25h-61.344c-3.4805 0-6.3633 2.8867-6.3633 6.3633 0 3.4805 2.8867 6.3633 6.3633 6.3633h67.711c3.4805 0 6.3633-2.8867 6.3633-6.3633v-5.8555c8.2305 0.085938 16.289 1.3594 23.926 3.9023l29.441 9.7578c9.332 3.0547 18.922 4.582 28.426 4.582h107.59c6.5352 0 12.898-2.7148 17.395-7.2109 4.668-4.582 7.2969-10.945 7.2969-17.48 0-4.3281-1.1875-8.3984-3.1406-11.965h0.42578c13.574 0 24.691-11.113 24.691-24.691 0-4.8359-1.4414-9.332-3.9023-13.152 10.348-3.0586 17.73-12.391 17.73-23.422zm-24.691 11.965h-29.527c-3.4805 0-6.3633 2.8867-6.3633 6.3633 0 3.4805 2.8867 6.3633 6.3633 6.3633h15.867c6.6172 0 11.965 5.3438 11.965 11.965 0 6.6172-5.3438 11.965-11.965 11.965h-15.867-0.085937-5.9375c-3.4805 0-6.3633 2.8867-6.3633 6.3633 0 3.4805 2.8867 6.3633 6.3633 6.3633 6.6172 0 11.965 5.3438 11.965 11.965 0 3.1406-1.2734 6.1094-3.6484 8.4844-2.207 2.2891-5.1758 3.4805-8.3164 3.4805l-107.59-0.003906c-8.2305 0-16.461-1.3594-24.438-3.9883l-29.441-9.7578c-8.9102-2.9688-18.328-4.582-28-4.582v-94.266c3.1406-0.67969 6.2773-1.4414 9.5859-2.4609 12.219-3.6484 24.012-10.266 35.043-19.855 5.4297-4.668 16.289-13.32 28.508-18.922 15.695-6.957 28.34-15.441 38.777-25.879l1.6133-1.6133c4.75-4.75 12.133-5.4297 16.801-1.6133 2.7148 2.207 4.2422 5.2617 4.4141 8.6562 0.16797 3.3945-1.1016 6.7031-3.6484 9.25l-19.176 20.277c-1.7812 1.8672-2.207 4.582-1.1875 6.8711 1.0195 2.2891 3.3086 3.8164 5.8555 3.8164h94.777c6.6172 0 11.965 5.3438 11.965 11.965 0 4.0742-1.9531 6.8711-3.3945 8.3984-2.2891 2.207-5.2617 3.4805-8.3984 3.4805h-16.035c-3.4805 0-6.3633 2.8867-6.3633 6.3633 0 0.84766 0.16797 1.6953 0.50781 2.4609 0.93359 2.2891 3.2227 3.9023 5.8555 3.9023h15.867 0.25391 13.406c6.6172 0 11.965 5.3438 11.965 11.965-0.007812 6.6211-5.3555 12.223-11.973 12.223z"/>
  <use x="70" y="687.273438" xlink:href="#g"/>
  <use x="101.132813" y="687.273438" xlink:href="#i"/>
  <use x="122.058594" y="687.273438" xlink:href="#b"/>
  <use x="150.828125" y="687.273438" xlink:href="#f"/>
  <use x="179.457031" y="687.273438" xlink:href="#a"/>
  <use x="199.738281" y="687.273438" xlink:href="#b"/>
  <use x="228.511719" y="687.273438" xlink:href="#e"/>
  <use x="273.648438" y="687.273438" xlink:href="#h"/>
  <use x="304.015625" y="687.273438" xlink:href="#d"/>
  <use x="346.441406" y="687.273438" xlink:href="#g"/>
  <use x="377.574219" y="687.273438" xlink:href="#f"/>
  <use x="406.203125" y="687.273438" xlink:href="#c"/>
  <use x="436.40625" y="687.273438" xlink:href="#e"/>
  <use x="466.773438" y="687.273438" xlink:href="#d"/>
  <use x="509.199219" y="687.273438" xlink:href="#r"/>
  <use x="544.414062" y="687.273438" xlink:href="#b"/>
  <use x="573.1875" y="687.273438" xlink:href="#q"/>
  <use x="598.4375" y="687.273438" xlink:href="#p"/>
  <use x="612.980469" y="687.273438" xlink:href="#o"/>
  <use x="643.347656" y="687.273438" xlink:href="#c"/>
  <use x="70" y="729.695312" xlink:href="#n"/>
  <use x="197.5" y="729.695312" xlink:href="#a"/>
  <use x="217.78125" y="729.695312" xlink:href="#m"/>
  <use x="291.527344" y="729.695312" xlink:href="#l"/>
  <use x="431.351563" y="729.695312" xlink:href="#k"/>
  <use x="512.511719" y="729.695312" xlink:href="#j"/>
  <use x="580.976562" y="729.695312" xlink:href="#a"/>
 </g>
</svg>
